<svg width="96px" height="72px" viewBox="0 0 96 72" version="1.1" xmlns="http://www.w3.org/2000/svg" xmlns:xlink="http://www.w3.org/1999/xlink">
    <!-- Generator: Sketch 61.1 (89650) - https://sketch.com -->
    <title>Page 1</title>
    <desc>Created with Sketch.</desc>
    <g id="Page-1" stroke="none" stroke-width="1" fill="none" fill-rule="evenodd">
        <g id="Podcast-Group">
            <rect id="Podcast-Container" x="0" y="0" width="96" height="72"></rect>
            <g id="font-awesome-podcast-solid" transform="translate(17.000000, 0.000000)" fill="#000000" fill-rule="nonzero">
                <path d="M37.6072031,68.7041719 C36.8839688,71.3774531 34.1519062,72 31.5,72 C28.8482344,72 26.1160312,71.3774531 25.3929375,68.7041719 C24.3178594,64.7063438 22.5,54.6887813 22.5,50.0273438 C22.5,45.0835313 26.8793438,43.875 31.5,43.875 C36.1206562,43.875 40.5,45.0835313 40.5,50.0273438 C40.5,54.6607969 38.6900156,64.6775156 37.6072031,68.7041719 Z M22.0594219,40.5779062 C19.4307187,38.0033437 17.8465781,34.3660781 18.0116719,30.3686719 C18.3005156,23.3762344 23.9734688,17.7186094 30.9666094,17.4479062 C38.6524688,17.1503438 45,23.3166094 45,30.9375 C45,34.7100469 43.444125,38.1256875 40.9407188,40.577625 C40.5645469,40.9460625 40.6030781,41.5600313 41.0290313,41.8695469 C42.3385313,42.820875 43.3437188,44.0271563 44.0150625,45.4362188 C44.2598906,45.9500625 44.9287031,46.0915313 45.3438281,45.7021406 C49.3974844,41.8992188 51.8903437,36.4514063 51.7438125,30.4351875 C51.4829531,19.7187188 42.8007656,10.9996875 32.0854219,10.6957969 C20.6534531,10.3715156 11.25,19.5771094 11.25,30.9375 C11.25,36.7538906 13.7154375,42.0046875 17.6554688,45.7015781 C18.0707344,46.09125 18.7398281,45.9504844 18.9847969,45.4362188 C19.6561406,44.0270156 20.6614687,42.820875 21.9709687,41.8695469 C22.3969219,41.5601719 22.4355937,40.9462031 22.0594219,40.5779063 L22.0594219,40.5779062 Z M31.5,0 C14.0911875,0 0,14.0885156 0,31.5 C0,44.155125 7.39715625,54.7941094 17.6820469,59.823 C18.291375,60.1208437 18.9852187,59.605875 18.8822812,58.9356563 C18.5473125,56.7542812 18.2716875,54.583875 18.1220625,52.7004844 C18.1015313,52.4422969 17.9604844,52.2102656 17.7454687,52.0659844 C11.0798438,47.5932656 6.69740625,39.9699844 6.75042187,31.3453125 C6.83367187,17.8119844 17.9005781,6.7854375 31.4341875,6.75014063 C45.1115156,6.71442188 56.25,17.8308281 56.25,31.5 C56.25,40.2091875 51.7277812,47.8814062 44.9085938,52.2937969 C44.7681094,54.26775 44.4770156,56.5952344 44.1177187,58.9355156 C44.0147812,59.605875 44.7087656,60.1208437 45.3179531,59.8228594 C55.5787969,54.8053594 63,44.1825469 63,31.5 C63,14.0913281 48.9114844,0 31.5,0 Z M31.5,22.5 C26.5294687,22.5 22.5,26.5294687 22.5,31.5 C22.5,36.4705313 26.5294687,40.5 31.5,40.5 C36.4705313,40.5 40.5,36.4705313 40.5,31.5 C40.5,26.5294687 36.4705313,22.5 31.5,22.5 Z" id="Shape"></path>
            </g>
        </g>
    </g>
</svg>