<svg width="96px" height="72px" viewBox="0 0 96 72" version="1.1" xmlns="http://www.w3.org/2000/svg" xmlns:xlink="http://www.w3.org/1999/xlink">
    <!-- Generator: Sketch 61.1 (89650) - https://sketch.com -->
    <title>Page 1</title>
    <desc>Created with Sketch.</desc>
    <g id="Page-1" stroke="none" stroke-width="1" fill="none" fill-rule="evenodd">
        <g id="Video-Group">
            <rect id="Video-Container" x="0" y="0" width="96" height="72"></rect>
            <path d="M90.65,9.31818182 C89.6166667,9.31818182 88.5666667,9.61732955 87.6166667,10.265483 L69.3333333,21.6330966 L69.3333333,11.9440341 C69.3333333,7.55653409 65.4666667,4 60.7,4 L8.63333333,4 C3.86666667,4 0,7.55653409 0,11.9440341 L0,59.8741477 C0,64.2616477 3.86666667,67.8181818 8.63333333,67.8181818 L60.7,67.8181818 C65.4666667,67.8181818 69.3333333,64.2616477 69.3333333,59.8741477 L69.3333333,50.1850852 L87.6166667,61.5360795 C88.5666667,62.2008523 89.6333333,62.4833807 90.65,62.4833807 C93.4166667,62.4833807 96,60.3228693 96,57.2482955 L96,14.553267 C96,11.4786932 93.4166667,9.31818182 90.65,9.31818182 Z M61.3333333,26.6022727 L61.3333333,59.6580966 C61.2333333,59.7245739 61.0333333,59.8409091 60.7,59.8409091 L8.63333333,59.8409091 C8.3,59.8409091 8.1,59.7411932 8,59.6580966 L8,12.1600852 C8.1,12.093608 8.3,11.9772727 8.63333333,11.9772727 L60.7,11.9772727 C61.0333333,11.9772727 61.2333333,12.0769886 61.3333333,12.1600852 L61.3333333,26.6022727 Z M88,52.3954545 L69.3333333,40.7951705 L69.3333333,31.0396307 L88,19.4393466 L88,52.3954545 Z" id="Video" fill="#000000" fill-rule="nonzero"></path>
        </g>
    </g>
</svg>