<svg width="96px" height="72px" viewBox="0 0 96 72" version="1.1" xmlns="http://www.w3.org/2000/svg" xmlns:xlink="http://www.w3.org/1999/xlink">
    <!-- Generator: Sketch 61.1 (89650) - https://sketch.com -->
    <title>Page 1</title>
    <desc>Created with Sketch.</desc>
    <g id="Page-1" stroke="none" stroke-width="1" fill="none" fill-rule="evenodd">
        <g id="Book-Group">
            <path d="M67.0625,22.5 L43.4375,22.5 C42.509375,22.5 41.75,21.740625 41.75,20.8125 L41.75,19.6875 C41.75,18.759375 42.509375,18 43.4375,18 L67.0625,18 C67.990625,18 68.75,18.759375 68.75,19.6875 L68.75,20.8125 C68.75,21.740625 67.990625,22.5 67.0625,22.5 Z M68.75,29.8125 L68.75,28.6875 C68.75,27.759375 67.990625,27 67.0625,27 L43.4375,27 C42.509375,27 41.75,27.759375 41.75,28.6875 L41.75,29.8125 C41.75,30.740625 42.509375,31.5 43.4375,31.5 L67.0625,31.5 C67.990625,31.5 68.75,30.740625 68.75,29.8125 Z M77.8484375,67.5 L78.3125,67.5 C79.240625,67.5 80,68.259375 80,69.1875 L80,70.3125 C80,71.240625 79.240625,72 78.3125,72 L28.25,72 C22.034375,72 17,66.965625 17,60.75 L17,11.25 C17,5.034375 22.034375,0 28.25,0 L76.625,0 C78.4953125,0 80,1.5046875 80,3.375 L80,55.125 C80,56.53125 79.128125,57.740625 77.9046875,58.246875 C77.3984375,60.5109375 77.2859375,64.659375 77.8484375,67.5 L77.8484375,67.5 Z M35,54 L75.5,54 L75.5,4.5 L35,4.5 L35,54 Z M21.5,56.25 C23.384375,54.84375 25.71875,54 28.25,54 L30.5,54 L30.5,4.5 L28.25,4.5 C24.5234375,4.5 21.5,7.5234375 21.5,11.25 L21.5,56.25 Z M73.8546875,67.5 C73.41875,64.63125 73.446875,61.14375 73.8546875,58.5 L28.25,58.5 C19.25,58.5 19.25,67.5 28.25,67.5 L73.8546875,67.5 Z" id="Book" fill="#000000" fill-rule="nonzero"></path>
            <rect id="Rectangle-Copy" x="0" y="0" width="96" height="72"></rect>
        </g>
    </g>
</svg>